<?xml version="1.0" encoding="UTF-8" standalone="no"?><svg xmlns="http://www.w3.org/2000/svg" xmlns:xlink="http://www.w3.org/1999/xlink" contentStyleType="text/css" height="170px" preserveAspectRatio="none" style="width:596px;height:170px;background:#FFFFFF;" version="1.1" viewBox="0 0 596 170" width="596px" zoomAndPan="magnify"><defs/><g><!--class BankAccount--><g id="elem_BankAccount"><rect codeLine="1" fill="#F1F1F1" height="48" id="BankAccount" rx="2.5" ry="2.5" style="stroke:#181818;stroke-width:0.5;" width="124" x="261" y="7"/><ellipse cx="276" cy="23" fill="#ADD1B2" rx="11" ry="11" style="stroke:#181818;stroke-width:1.0;"/><path d="M278.9688,28.6406 Q278.3906,28.9375 277.75,29.0781 Q277.1094,29.2344 276.4063,29.2344 Q273.9063,29.2344 272.5781,27.5938 Q271.2656,25.9375 271.2656,22.8125 Q271.2656,19.6875 272.5781,18.0313 Q273.9063,16.375 276.4063,16.375 Q277.1094,16.375 277.75,16.5313 Q278.4063,16.6875 278.9688,16.9844 L278.9688,19.7031 Q278.3438,19.125 277.75,18.8594 Q277.1563,18.5781 276.5313,18.5781 Q275.1875,18.5781 274.5,19.6563 Q273.8125,20.7188 273.8125,22.8125 Q273.8125,24.9063 274.5,25.9844 Q275.1875,27.0469 276.5313,27.0469 Q277.1563,27.0469 277.75,26.7813 Q278.3438,26.5 278.9688,25.9219 L278.9688,28.6406 Z " fill="#000000"/><text fill="#000000" font-family="sans-serif" font-size="14" lengthAdjust="spacing" textLength="92" x="290" y="27.8467">BankAccount</text><line style="stroke:#181818;stroke-width:0.5;" x1="262" x2="384" y1="39" y2="39"/><line style="stroke:#181818;stroke-width:0.5;" x1="262" x2="384" y1="47" y2="47"/></g><!--class InterestEarningAccount--><g id="elem_InterestEarningAccount"><rect codeLine="2" fill="#F1F1F1" height="48" id="InterestEarningAccount" rx="2.5" ry="2.5" style="stroke:#181818;stroke-width:0.5;" width="194" x="7" y="115"/><ellipse cx="22" cy="131" fill="#ADD1B2" rx="11" ry="11" style="stroke:#181818;stroke-width:1.0;"/><path d="M24.9688,136.6406 Q24.3906,136.9375 23.75,137.0781 Q23.1094,137.2344 22.4063,137.2344 Q19.9063,137.2344 18.5781,135.5938 Q17.2656,133.9375 17.2656,130.8125 Q17.2656,127.6875 18.5781,126.0313 Q19.9063,124.375 22.4063,124.375 Q23.1094,124.375 23.75,124.5313 Q24.4063,124.6875 24.9688,124.9844 L24.9688,127.7031 Q24.3438,127.125 23.75,126.8594 Q23.1563,126.5781 22.5313,126.5781 Q21.1875,126.5781 20.5,127.6563 Q19.8125,128.7188 19.8125,130.8125 Q19.8125,132.9063 20.5,133.9844 Q21.1875,135.0469 22.5313,135.0469 Q23.1563,135.0469 23.75,134.7813 Q24.3438,134.5 24.9688,133.9219 L24.9688,136.6406 Z " fill="#000000"/><text fill="#000000" font-family="sans-serif" font-size="14" lengthAdjust="spacing" textLength="162" x="36" y="135.8467">InterestEarningAccount</text><line style="stroke:#181818;stroke-width:0.5;" x1="8" x2="200" y1="147" y2="147"/><line style="stroke:#181818;stroke-width:0.5;" x1="8" x2="200" y1="155" y2="155"/></g><!--class LineOfCreditAccount--><g id="elem_LineOfCreditAccount"><rect codeLine="3" fill="#F1F1F1" height="48" id="LineOfCreditAccount" rx="2.5" ry="2.5" style="stroke:#181818;stroke-width:0.5;" width="173" x="236.5" y="115"/><ellipse cx="251.5" cy="131" fill="#ADD1B2" rx="11" ry="11" style="stroke:#181818;stroke-width:1.0;"/><path d="M254.4688,136.6406 Q253.8906,136.9375 253.25,137.0781 Q252.6094,137.2344 251.9063,137.2344 Q249.4063,137.2344 248.0781,135.5938 Q246.7656,133.9375 246.7656,130.8125 Q246.7656,127.6875 248.0781,126.0313 Q249.4063,124.375 251.9063,124.375 Q252.6094,124.375 253.25,124.5313 Q253.9063,124.6875 254.4688,124.9844 L254.4688,127.7031 Q253.8438,127.125 253.25,126.8594 Q252.6563,126.5781 252.0313,126.5781 Q250.6875,126.5781 250,127.6563 Q249.3125,128.7188 249.3125,130.8125 Q249.3125,132.9063 250,133.9844 Q250.6875,135.0469 252.0313,135.0469 Q252.6563,135.0469 253.25,134.7813 Q253.8438,134.5 254.4688,133.9219 L254.4688,136.6406 Z " fill="#000000"/><text fill="#000000" font-family="sans-serif" font-size="14" lengthAdjust="spacing" textLength="141" x="265.5" y="135.8467">LineOfCreditAccount</text><line style="stroke:#181818;stroke-width:0.5;" x1="237.5" x2="408.5" y1="147" y2="147"/><line style="stroke:#181818;stroke-width:0.5;" x1="237.5" x2="408.5" y1="155" y2="155"/></g><!--class GiftCardAccount--><g id="elem_GiftCardAccount"><rect codeLine="4" fill="#F1F1F1" height="48" id="GiftCardAccount" rx="2.5" ry="2.5" style="stroke:#181818;stroke-width:0.5;" width="144" x="445" y="115"/><ellipse cx="460" cy="131" fill="#ADD1B2" rx="11" ry="11" style="stroke:#181818;stroke-width:1.0;"/><path d="M462.9688,136.6406 Q462.3906,136.9375 461.75,137.0781 Q461.1094,137.2344 460.4063,137.2344 Q457.9063,137.2344 456.5781,135.5938 Q455.2656,133.9375 455.2656,130.8125 Q455.2656,127.6875 456.5781,126.0313 Q457.9063,124.375 460.4063,124.375 Q461.1094,124.375 461.75,124.5313 Q462.4063,124.6875 462.9688,124.9844 L462.9688,127.7031 Q462.3438,127.125 461.75,126.8594 Q461.1563,126.5781 460.5313,126.5781 Q459.1875,126.5781 458.5,127.6563 Q457.8125,128.7188 457.8125,130.8125 Q457.8125,132.9063 458.5,133.9844 Q459.1875,135.0469 460.5313,135.0469 Q461.1563,135.0469 461.75,134.7813 Q462.3438,134.5 462.9688,133.9219 L462.9688,136.6406 Z " fill="#000000"/><text fill="#000000" font-family="sans-serif" font-size="14" lengthAdjust="spacing" textLength="112" x="474" y="135.8467">GiftCardAccount</text><line style="stroke:#181818;stroke-width:0.5;" x1="446" x2="588" y1="147" y2="147"/><line style="stroke:#181818;stroke-width:0.5;" x1="446" x2="588" y1="155" y2="155"/></g><!--reverse link BankAccount to InterestEarningAccount--><g id="link_BankAccount_InterestEarningAccount"><path d="M255.33,64.76 C221.95,80.91 182.47,100.02 152.21,114.67 " fill="none" id="BankAccount-backto-InterestEarningAccount" style="stroke:#181818;stroke-width:1.0;"/><polygon fill="none" points="252.25,58.47,273.31,56.05,258.35,71.07,252.25,58.47" style="stroke:#181818;stroke-width:1.0;"/></g><!--reverse link BankAccount to LineOfCreditAccount--><g id="link_BankAccount_LineOfCreditAccount"><path d="M323,76.72 C323,89.82 323,103.62 323,114.79 " fill="none" id="BankAccount-backto-LineOfCreditAccount" style="stroke:#181818;stroke-width:1.0;"/><polygon fill="none" points="316,76.78,323,56.78,330,76.78,316,76.78" style="stroke:#181818;stroke-width:1.0;"/></g><!--reverse link BankAccount to GiftCardAccount--><g id="link_BankAccount_GiftCardAccount"><path d="M384.38,65.54 C413.6,81.5 447.83,100.2 474.19,114.61 " fill="none" id="BankAccount-backto-GiftCardAccount" style="stroke:#181818;stroke-width:1.0;"/><polygon fill="none" points="381.1,71.72,366.9,55.99,387.81,59.43,381.1,71.72" style="stroke:#181818;stroke-width:1.0;"/></g><!--SRC=[Iyv9B2vMS4hCotPCJiulpIlXIWQBUEQLf1Qb5fUu9XRbPUQbGoKLKYjAKlDIi6dmoSnBzKzpBafDoImXhDezCwt4ER4e1OzA0000]--></g></svg>